<?xml version="1.0" encoding="utf-8"?>
<!-- Generator: Adobe Illustrator 28.0.0, SVG Export Plug-In . SVG Version: 6.00 Build 0)  -->
<svg version="1.1" id="图层_1" xmlns="http://www.w3.org/2000/svg" xmlns:xlink="http://www.w3.org/1999/xlink" x="0px" y="0px"
	 viewBox="0 0 128 128" style="enable-background:new 0 0 128 128;" xml:space="preserve">
<path fill="#333" d="M75.7,12.6c-7.9,1.8,2.2,9,4.2,11.4C31.7,36.5,55.6,0.5,30.1,70.1c-1.3,3.6,4.4,5.7,5.7,2c0,0,14-40.6,14-40.6
	c9.3,2.1,24.7,2.6,34.7-3l6.6,6.6c-5.8,9.4-4.5,26.1-2.8,34.8L35.6,88.1c0.6-2.4,34.8-30.3,28.9-33.1c-2-6.8-40.3,37.9-42.1,37.9
	c-2.7,2.1-0.4,6.8,2.8,5.4c1.3-0.8,67.6-22.9,68.5-24.1c1.1-1.1,1-2.1,0.6-4.1c-1.2-6.4-3.1-22.3,1.2-30.4c2.2,1.4,7.2,9.8,10.5,6.1
	c1.2-1.1,1.2-3,0-4.1L77.8,13.5C77.2,12.9,76.5,12.6,75.7,12.6z M68.3,97.4c-9.1-1.7-8,16.8-10.9,10c-3.9-7-11.1-2-14.1,3
	c-2.7,7.4,5.3,5,7.5,0.3c0.9-1.9,1.4,0.4,1.9,1.1c12.5,13.3,12.3-12.7,16-7.8c9,25.3,31.9-2.3,11.3,4.9
	C74.8,107.3,75.1,97,68.3,97.4z M31.1,109.4c-3.9-0.1-3.9,6.1,0,6C35,115.5,35,109.3,31.1,109.4z"/>
</svg>
